<svg xmlns="http://www.w3.org/2000/svg" xmlns:xlink="http://www.w3.org/1999/xlink" width="512" zoomAndPan="magnify" viewBox="0 0 384 383.999986" height="512" preserveAspectRatio="xMidYMid meet" version="1.0"><rect x="-38.4" width="460.8" fill="#ffffff" y="-38.399999" height="460.799983" fill-opacity="1"/><rect x="-38.4" width="460.8" fill="#ffffff" y="-38.399999" height="460.799983" fill-opacity="1"/><path fill="#000000" d="M 122.945312 34.648438 C 94.15625 37.65625 63.21875 55.796875 45.132812 80.277344 C 27.925781 103.566406 19.988281 128.289062 20.085938 158.277344 C 20.179688 185.933594 26.75 209.535156 39.800781 229.070312 C 46.550781 239.179688 51.792969 241.535156 56.664062 236.664062 C 60.5625 232.765625 60.542969 232.679688 53.136719 220.398438 C 34.765625 189.941406 30.992188 148.402344 43.726562 116.804688 C 60.308594 75.664062 96.1875 50.453125 138.070312 50.519531 C 193.179688 50.601562 236.285156 94.261719 239.03125 152.78125 C 240.25 178.835938 235.292969 199.414062 222.882812 219.804688 C 215.488281 231.953125 216.753906 239.394531 226.207031 239.394531 C 231.476562 239.394531 242.65625 220.828125 249.496094 200.714844 C 256.429688 180.320312 257.628906 149.257812 252.289062 128.144531 C 247.515625 109.246094 239.640625 92.835938 228.96875 79.535156 C 201.933594 45.832031 165.105469 30.242188 122.945312 34.648438 M 125.738281 84.710938 C 82.984375 92.015625 59.117188 143.597656 78.90625 185.910156 C 86.261719 201.628906 95.367188 211.207031 109.644531 218.238281 C 120.417969 223.546875 123.09375 224.105469 137.773438 224.105469 C 151.789062 224.105469 155.351562 223.4375 163.960938 219.207031 C 178.089844 212.265625 190.082031 200.066406 196.832031 185.765625 C 206.015625 166.316406 205.738281 139.941406 196.15625 120.660156 C 183.488281 95.167969 153.664062 79.941406 125.738281 84.710938 M 105.191406 258.125 C 44.683594 269.671875 0.828125 308.929688 -0.160156 352.4375 C -0.5625 370.058594 7.660156 378.726562 27.492188 381.59375 C 42.039062 383.699219 230.867188 383.722656 247.160156 381.621094 C 268.160156 378.914062 276.058594 370.664062 275.625 351.890625 C 275.15625 331.460938 261.03125 306.308594 240.6875 289.675781 C 226.378906 277.980469 201.347656 265.742188 181.867188 260.925781 C 162.140625 256.042969 123.488281 254.632812 105.191406 258.125 " fill-opacity="1" fill-rule="evenodd"/></svg>