<svg xmlns="http://www.w3.org/2000/svg" xmlns:xlink="http://www.w3.org/1999/xlink" width="512" zoomAndPan="magnify" viewBox="0 0 384 383.999986" height="512" preserveAspectRatio="xMidYMid meet" version="1.0"><rect x="-38.4" width="460.8" fill="#ffffff" y="-38.399999" height="460.799983" fill-opacity="1"/><rect x="-38.4" width="460.8" fill="#ffffff" y="-38.399999" height="460.799983" fill-opacity="1"/><path fill="#000000" d="M 133.34375 27.535156 C 129.226562 32.085938 129.402344 41.511719 133.671875 45.378906 C 138.21875 49.5 147.636719 49.328125 151.5 45.054688 C 155.617188 40.503906 155.445312 31.078125 151.175781 27.210938 C 146.628906 23.089844 137.207031 23.265625 133.34375 27.535156 M 71.507812 46.285156 C 64.945312 53.542969 68.816406 64.917969 78.886719 67.980469 C 84.726562 69.757812 92.769531 62.726562 92.769531 55.847656 C 92.769531 44.867188 78.566406 38.480469 71.507812 46.285156 M 196.246094 45.777344 C 190.128906 50.0625 190.550781 60.132812 197.058594 65.253906 C 208.996094 74.648438 223.46875 57.390625 212.691406 46.609375 C 208.199219 42.113281 201.925781 41.792969 196.246094 45.777344 M 121.4375 83.734375 C 96.417969 92.675781 80.53125 112.039062 75.773438 139.386719 C 67.261719 188.273438 106.308594 232.140625 151.75 224.738281 C 198.636719 217.101562 224.347656 163.097656 202.054688 119.078125 C 186.785156 88.929688 150.90625 73.199219 121.4375 83.734375 M 30.050781 97.171875 C 22.691406 105.304688 28.34375 117.859375 39.363281 117.859375 C 46.511719 117.859375 51.542969 112.953125 51.542969 105.992188 C 51.542969 95.238281 37.144531 89.328125 30.050781 97.171875 M 236.402344 96.910156 C 232.167969 101.597656 232.46875 110.894531 236.988281 114.988281 C 244.835938 122.09375 257.664062 116.714844 257.664062 106.316406 C 257.664062 95.476562 243.40625 89.167969 236.402344 96.910156 M 21.660156 160.527344 C 15.949219 165.15625 15.851562 175.480469 21.476562 180.039062 C 26.988281 184.507812 31.148438 184.386719 37.238281 179.597656 C 43.871094 174.375 43.871094 166.339844 37.238281 161.121094 C 31.203125 156.367188 26.992188 156.207031 21.660156 160.527344 M 246.417969 160.984375 C 241.9375 165.464844 241.523438 174.566406 245.613281 178.660156 C 253.832031 186.886719 267.054688 182.597656 267.003906 171.722656 C 266.96875 164.621094 265.683594 162.3125 260.128906 159.390625 C 254.253906 156.296875 250.6875 156.710938 246.417969 160.984375 M 44.046875 222.859375 C 37.273438 229.636719 40.578125 241.894531 49.671875 243.703125 C 55.230469 244.804688 62.183594 241.609375 64.296875 236.972656 C 69.976562 224.496094 53.730469 213.167969 44.046875 222.859375 M 223.289062 222.535156 C 219.050781 227.222656 219.351562 236.519531 223.871094 240.613281 C 232.082031 248.046875 244.546875 242.320312 244.546875 231.113281 C 244.546875 220.550781 230.285156 214.796875 223.289062 222.535156 M 111.941406 258.625 C 67.621094 265.476562 24.949219 293.15625 9.039062 325.367188 C 3.417969 336.753906 2.046875 341.828125 1.351562 353.847656 C 0.527344 368.117188 0.648438 368.632812 6.445312 375.238281 C 16.886719 387.140625 14.335938 386.921875 142.421875 386.921875 C 270.511719 386.921875 267.957031 387.140625 278.402344 375.238281 C 284.167969 368.664062 284.316406 368.0625 283.507812 354.257812 C 281.121094 313.375 242.425781 276.519531 186.605469 261.960938 C 169.957031 257.621094 129.988281 255.832031 111.941406 258.625 " fill-opacity="1" fill-rule="evenodd"/></svg>